<svg xmlns="http://www.w3.org/2000/svg" viewBox="-0.5 -0.5 571 801" height="801" width="571">
    <path pointer-events="stroke" stroke-miterlimit="10" stroke="#000" fill="none" d="M160 140v33.63"/>
    <path pointer-events="all" stroke-miterlimit="10" stroke="#000" d="M160 178.88l-3.5-7 3.5 1.75 3.5-1.75z"/>
    <path pointer-events="stroke" stroke-miterlimit="10" stroke="#000" fill="none" d="M160 140v43.63"/>
    <path pointer-events="all" stroke-miterlimit="10" stroke="#000" d="M160 188.88l-3.5-7 3.5 1.75 3.5-1.75z"/>
    <path pointer-events="all" stroke="#000" fill="#fff" d="M80 100h160v40H80z"/>
    <switch transform="translate(-.5 -.5)">
        <g style="fill:#000" aria-label="Sum aggregation">
            <path style="fill:#000" d="M120.56809 124.228q-1.38 0-2.136-.732-.744-.732-.744-2.136h1.848q0 .672.264 1.02.276.336.768.336.408 0 .636-.24.24-.24.24-.648 0-.384-.216-.648t-.684-.504l-1.056-.504q-.864-.42-1.284-.996-.408-.588-.408-1.452 0-1.068.72-1.704.732-.648 1.944-.648 1.32 0 1.992.672.672.672.672 1.968h-1.812q0-1.188-.888-1.188-.384 0-.6.216-.216.216-.216.588t.216.612q.216.228.744.504l1.128.564q.828.444 1.2 1.008.372.552.372 1.38 0 1.152-.744 1.848-.732.684-1.956.684zM125.70522 124.156q-.828 0-1.284-.588-.456-.588-.456-1.668v-3.648h1.764v3.396q0 1.032.768 1.032.828 0 .828-1.188v-3.24h1.752V124h-1.752v-.828q-.432.984-1.62.984zM130.23616 124v-5.748h1.752v.816q.384-.972 1.512-.972 1.176 0 1.524 1.056.444-1.056 1.608-1.056.888 0 1.356.588.48.576.48 1.668V124h-1.764v-3.444q0-.984-.684-.984-.792 0-.792 1.176V124h-1.764v-3.444q0-.984-.684-.984-.792 0-.792 1.176V124zM143.82859 124.156q-1.044 0-1.668-.828-.624-.84-.624-2.208 0-1.368.624-2.196.624-.828 1.668-.828 1.164 0 1.596 1.008v-.852h1.764V124h-1.764v-.852q-.444 1.008-1.596 1.008zm.564-1.476q.516 0 .804-.396.288-.408.288-1.164 0-.744-.288-1.14-.288-.408-.804-.408-.528 0-.804.396t-.276 1.152q0 .756.276 1.164.276.396.804.396zM151.86991 118.252h1.752v5.724q0 1.536-1.008 2.184-.696.432-1.74.432t-1.74-.48q-.828-.54-.9-1.512h1.764q.036.324.264.516.24.204.66.204.948 0 .948-1.116v-1.14q-.432.984-1.608.984-1.032 0-1.656-.804-.624-.816-.624-2.172 0-1.356.624-2.16.624-.816 1.656-.816 1.164 0 1.608 1.008zm-1.032 4.428q.516 0 .804-.396.288-.408.288-1.164 0-.744-.288-1.14-.288-.408-.804-.408-.528 0-.804.396t-.276 1.152q0 .756.276 1.164.276.396.804.396zM158.31522 118.252h1.752v5.724q0 1.536-1.008 2.184-.696.432-1.74.432t-1.74-.48q-.828-.54-.9-1.512h1.764q.036.324.264.516.24.204.66.204.948 0 .948-1.116v-1.14q-.432.984-1.608.984-1.032 0-1.656-.804-.624-.816-.624-2.172 0-1.356.624-2.16.624-.816 1.656-.816 1.164 0 1.608 1.008zm-1.032 4.428q.516 0 .804-.396.288-.408.288-1.164 0-.744-.288-1.14-.288-.408-.804-.408-.528 0-.804.396t-.276 1.152q0 .756.276 1.164.276.396.804.396zM161.22053 124v-5.748h1.62v1.344q.108-.684.48-1.056.384-.384.924-.384.108 0 .324.024v1.728q-.144-.024-.336-.024-.648 0-.96.444-.3.432-.3 1.38V124zM170.20778 120.76q0 .444-.048.828h-3.54q.024.6.288.936.264.324.768.324.72 0 .864-.588h1.584q-.12.912-.756 1.416-.624.492-1.68.492-1.344 0-2.064-.78-.72-.792-.72-2.244 0-1.452.72-2.256.72-.816 2.016-.816 1.224 0 1.896.732.672.732.672 1.956zm-3.588-.276h1.92q0-1.236-.912-1.236-.984 0-1.008 1.236zM174.62772 118.252h1.752v5.724q0 1.536-1.008 2.184-.696.432-1.74.432t-1.74-.48q-.828-.54-.9-1.512h1.764q.036.324.264.516.24.204.66.204.948 0 .948-1.116v-1.14q-.432.984-1.608.984-1.032 0-1.656-.804-.624-.816-.624-2.172 0-1.356.624-2.16.624-.816 1.656-.816 1.164 0 1.608 1.008zm-1.032 4.428q.516 0 .804-.396.288-.408.288-1.164 0-.744-.288-1.14-.288-.408-.804-.408-.528 0-.804.396t-.276 1.152q0 .756.276 1.164.276.396.804.396zM179.47703 124.156q-1.044 0-1.668-.828-.624-.84-.624-2.208 0-1.368.624-2.196.624-.828 1.668-.828 1.164 0 1.596 1.008v-.852h1.764V124h-1.764v-.852q-.444 1.008-1.596 1.008zm.564-1.476q.516 0 .804-.396.288-.408.288-1.164 0-.744-.288-1.14-.288-.408-.804-.408-.528 0-.804.396t-.276 1.152q0 .756.276 1.164.276.396.804.396zM186.65434 122.572q.024 0 .36-.024V124q-.48.096-.924.096-.816 0-1.32-.468-.492-.48-.492-1.38v-2.64h-.732v-1.356h.732v-1.716h1.752v1.716h.936v1.356h-.936v2.172q0 .792.624.792zM188.72153 117.688q-.468 0-.78-.3-.312-.312-.312-.78 0-.48.312-.78.312-.312.78-.312.48 0 .792.312.312.3.312.78 0 .468-.312.78-.312.3-.792.3zm-.876 6.312v-5.748h1.752V124zM195.27578 123.352q-.756.816-2.052.816t-2.064-.816q-.756-.828-.756-2.232 0-1.404.756-2.22.768-.828 2.064-.828t2.052.828q.768.816.768 2.22 0 1.404-.768 2.232zm-2.856-1.068q.288.396.804.396t.792-.396q.288-.408.288-1.164t-.288-1.152q-.276-.408-.792-.408t-.804.408q-.276.396-.276 1.152 0 .756.276 1.164zM196.84553 124v-5.748h1.752v.816q.468-.972 1.632-.972.852 0 1.308.552.456.54.456 1.596V124h-1.776v-3.276q0-.6-.18-.876t-.576-.276q-.864 0-.864 1.32V124z"/>
        </g>
    </switch>
    <path pointer-events="stroke" stroke-miterlimit="10" stroke="#000" fill="none" d="M160 240v33.63"/>
    <path pointer-events="all" stroke-miterlimit="10" stroke="#000" d="M160 278.88l-3.5-7 3.5 1.75 3.5-1.75z"/>
    <path pointer-events="all" fill="#e43935" d="M72.5 240l20-60h155l-20 60z"/>
    <switch transform="translate(-.5 -.5)">
        <g style="fill:#fff" aria-label="m[&quot;Amount.SUM&quot;]">
            <path style="fill:#fff" d="M115.25959 214v-5.748h1.752v.816q.384-.972 1.512-.972 1.176 0 1.524 1.056.444-1.056 1.608-1.056.888 0 1.356.588.48.576.48 1.668V214h-1.764v-3.444q0-.984-.684-.984-.792 0-.792 1.176V214h-1.764v-3.444q0-.984-.684-.984-.792 0-.792 1.176V214zM124.64772 216.316v-11.112h2.376v1.392h-.84v8.328h.84v1.392zM130.16622 206.752q0 .228-.096.48l-.636 2.304h-.684l-.648-2.304q-.084-.276-.084-.48 0-.456.312-.768t.756-.312q.456 0 .768.312t.312.768zm2.472 0q0 .228-.096.48l-.636 2.304h-.684l-.648-2.304q-.084-.276-.084-.48 0-.456.312-.768t.756-.312q.456 0 .768.312t.312.768zM138.06203 214l-.3-1.26h-2.34l-.3 1.26h-1.908l2.46-8.4h1.836l2.46 8.4zm-2.304-2.7h1.668l-.84-3.552zM140.68928 214v-5.748h1.752v.816q.384-.972 1.512-.972 1.176 0 1.524 1.056.444-1.056 1.608-1.056.888 0 1.356.588.48.576.48 1.668V214h-1.764v-3.444q0-.984-.684-.984-.792 0-.792 1.176V214h-1.764v-3.444q0-.984-.684-.984-.792 0-.792 1.176V214zM154.54141 213.352q-.756.816-2.052.816t-2.064-.816q-.756-.828-.756-2.232 0-1.404.756-2.22.768-.828 2.064-.828t2.052.828q.768.816.768 2.22 0 1.404-.768 2.232zm-2.856-1.068q.288.396.804.396t.792-.396q.288-.408.288-1.164t-.288-1.152q-.276-.408-.792-.408t-.804.408q-.276.396-.276 1.152 0 .756.276 1.164zM157.79116 214.156q-.828 0-1.284-.588-.456-.588-.456-1.668v-3.648h1.764v3.396q0 1.032.768 1.032.828 0 .828-1.188v-3.24h1.752V214h-1.752v-.828q-.432.984-1.62.984zM162.32209 214v-5.748h1.752v.816q.468-.972 1.632-.972.852 0 1.308.552.456.54.456 1.596V214h-1.776v-3.276q0-.6-.18-.876t-.576-.276q-.864 0-.864 1.32V214zM171.23247 212.572q.024 0 .36-.024V214q-.48.096-.924.096-.816 0-1.32-.468-.492-.48-.492-1.38v-2.64h-.732v-1.356h.732v-1.716h1.752v1.716h.936v1.356h-.936v2.172q0 .792.624.792zM173.32366 214.12q-.492 0-.828-.336-.336-.348-.336-.828 0-.468.336-.804.336-.348.828-.348.48 0 .816.348.348.336.348.804 0 .48-.348.828-.336.336-.816.336zM177.68528 214.228q-1.38 0-2.136-.732-.744-.732-.744-2.136h1.848q0 .672.264 1.02.276.336.768.336.408 0 .636-.24.24-.24.24-.648 0-.384-.216-.648t-.684-.504l-1.056-.504q-.864-.42-1.284-.996-.408-.588-.408-1.452 0-1.068.72-1.704.732-.648 1.944-.648 1.32 0 1.992.672.672.672.672 1.968h-1.812q0-1.188-.888-1.188-.384 0-.6.216-.216.216-.216.588t.216.612q.216.228.744.504l1.128.564q.828.444 1.2 1.008.372.552.372 1.38 0 1.152-.744 1.848-.732.684-1.956.684zM186.27841 213.424q-.792.792-2.196.792-1.404 0-2.196-.792-.792-.804-.792-2.256V205.6h1.872v5.484q0 .72.3 1.116.312.396.816.396.516 0 .828-.396.312-.396.312-1.116V205.6h1.86v5.568q0 1.464-.804 2.256zM188.25709 214v-8.4h2.076l1.596 5.988 1.608-5.988h2.076v8.4h-1.704v-5.124l-1.368 5.124h-1.224l-1.368-5.124V214zM198.83809 206.752q0 .228-.096.48l-.636 2.304h-.684l-.648-2.304q-.084-.276-.084-.48 0-.456.312-.768t.756-.312q.456 0 .768.312t.312.768zm2.472 0q0 .228-.096.48l-.636 2.304h-.684l-.648-2.304q-.084-.276-.084-.48 0-.456.312-.768t.756-.312q.456 0 .768.312t.312.768zM204.68191 216.316h-2.376v-1.392h.84v-8.328h-.84v-1.392h2.376z"/>
        </g>
    </switch>
    <path pointer-events="stroke" stroke-miterlimit="10" stroke="#000" fill="none" d="M190 500h-30v153.63"/>
    <path pointer-events="all" stroke-miterlimit="10" stroke="#000" d="M160 658.88l-3.5-7 3.5 1.75 3.5-1.75z"/>
    <path pointer-events="stroke" stroke-miterlimit="10" stroke="#000" fill="none" d="M370 500h70v73.63"/>
    <path pointer-events="all" stroke-miterlimit="10" stroke="#000" d="M440 578.88l-3.5-7 3.5 1.75 3.5-1.75z"/>
    <path pointer-events="all" d="M280 440l90 60-90 60-90-60z"/>
    <switch transform="translate(-.5 -.5)">
        <g style="fill:#fff" aria-label="lvl[&quot;Country&quot;]">
            <path style="fill:#fff" d="M245.69041 504v-8.4h1.752v8.4zM250.07322 504l-2.076-5.748h1.836l1.02 3.54 1.02-3.54h1.848l-2.088 5.748zM254.38572 504v-8.4h1.752v8.4zM257.37428 506.316v-11.112h2.376v1.392h-.84v8.328h.84v1.392zM262.89278 496.752q0 .228-.096.48l-.636 2.304h-.684l-.648-2.304q-.084-.276-.084-.48 0-.456.312-.768t.756-.312q.456 0 .768.312t.312.768zm2.472 0q0 .228-.096.48l-.636 2.304h-.684l-.648-2.304q-.084-.276-.084-.48 0-.456.312-.768t.756-.312q.456 0 .768.312t.312.768zM269.48059 504.228q-1.68 0-2.568-1.152-.876-1.152-.876-3.276 0-2.124.876-3.276.888-1.152 2.568-1.152 1.5 0 2.304.84.816.828.888 2.412h-1.932q-.06-.816-.36-1.212-.288-.396-.9-.396-.792 0-1.152.696-.36.684-.36 2.088t.36 2.1q.36.684 1.152.684.612 0 .9-.396.3-.396.36-1.212h1.932q-.072 1.584-.888 2.424-.804.828-2.304.828zM278.17422 503.352q-.756.816-2.052.816t-2.064-.816q-.756-.828-.756-2.232 0-1.404.756-2.22.768-.828 2.064-.828t2.052.828q.768.816.768 2.22 0 1.404-.768 2.232zm-2.856-1.068q.288.396.804.396t.792-.396q.288-.408.288-1.164t-.288-1.152q-.276-.408-.792-.408t-.804.408q-.276.396-.276 1.152 0 .756.276 1.164zM281.42397 504.156q-.828 0-1.284-.588-.456-.588-.456-1.668v-3.648h1.764v3.396q0 1.032.768 1.032.828 0 .828-1.188v-3.24h1.752V504h-1.752v-.828q-.432.984-1.62.984zM285.95491 504v-5.748h1.752v.816q.468-.972 1.632-.972.852 0 1.308.552.456.54.456 1.596V504h-1.776v-3.276q0-.6-.18-.876t-.576-.276q-.864 0-.864 1.32V504zM294.86528 502.572q.024 0 .36-.024V504q-.48.096-.924.096-.816 0-1.32-.468-.492-.48-.492-1.38v-2.64h-.732v-1.356h.732v-1.716h1.752v1.716h.936v1.356h-.936v2.172q0 .792.624.792zM296.05647 504v-5.748h1.62v1.344q.108-.684.48-1.056.384-.384.924-.384.108 0 .324.024v1.728q-.144-.024-.336-.024-.648 0-.96.444-.3.432-.3 1.38V504zM303.52834 498.252h1.752v5.688q0 1.524-.852 2.172-.648.48-1.728.48-1.068 0-1.704-.42-.804-.54-.816-1.572h1.668q.06.72.84.72.432 0 .636-.3.204-.288.204-.936v-1.02q-.432.984-1.62.984-.864 0-1.308-.612-.432-.612-.432-1.632v-3.552h1.764v3.312q0 1.044.768 1.044.828 0 .828-1.176zM308.45528 496.752q0 .228-.096.48l-.636 2.304h-.684l-.648-2.304q-.084-.276-.084-.48 0-.456.312-.768t.756-.312q.456 0 .768.312t.312.768zm2.472 0q0 .228-.096.48l-.636 2.304h-.684l-.648-2.304q-.084-.276-.084-.48 0-.456.312-.768t.756-.312q.456 0 .768.312t.312.768zM314.29909 506.316h-2.376v-1.392h.84v-8.328h-.84v-1.392h2.376z"/>
        </g>
    </switch>
    <path pointer-events="stroke" stroke-miterlimit="10" stroke="#000" fill="none" d="M440 620v20H160v13.63"/>
    <path pointer-events="all" stroke-miterlimit="10" stroke="#000" d="M160 658.88l-3.5-7 3.5 1.75 3.5-1.75z"/>
    <path pointer-events="all" stroke="#000" fill="#fff" d="M310 580h260v40H310z"/>
    <switch transform="translate(-.5 -.5)">
        <g style="fill:#000" aria-label="m[&quot;Amount.SUM&quot;] = 0.80 * m[&quot;Amount.SUM&quot;]">
            <path style="fill:#000" d="M328.59163 604v-5.748h1.75199v.816q.384-.972 1.512-.972 1.17601 0 1.524 1.056.444-1.056 1.608-1.056.88801 0 1.356.588.48.576.48 1.668V604h-1.764v-3.444q0-.984-.68399-.984-.79201 0-.79201 1.176V604h-1.764v-3.444q0-.984-.684-.984-.792 0-.792 1.176V604zM337.97975 606.316v-11.112h2.376v1.392h-.84v8.328h.84v1.392zM343.49825 596.752q0 .228-.096.48l-.636 2.304h-.684l-.648-2.304q-.084-.276-.084-.48 0-.456.312-.768t.756-.312q.456 0 .768.312t.312.768zm2.472 0q0 .228-.096.48l-.636 2.304h-.684l-.648-2.304q-.084-.276-.084-.48 0-.456.312-.768t.756-.312q.456 0 .768.312t.312.768zM351.39406 604l-.3-1.26h-2.34l-.3 1.26h-1.908l2.46-8.4h1.836l2.46 8.4zm-2.304-2.7h1.668l-.84-3.552zM354.02131 604v-5.748h1.752v.816q.384-.972 1.512-.972 1.176 0 1.524 1.056.444-1.056 1.608-1.056.888 0 1.356.588.48.576.48 1.668V604h-1.764v-3.444q0-.984-.684-.984-.792 0-.792 1.176V604h-1.764v-3.444q0-.984-.684-.984-.792 0-.792 1.176V604zM367.87344 603.352q-.756.816-2.052.816t-2.064-.816q-.756-.828-.756-2.232 0-1.404.756-2.22.768-.828 2.064-.828t2.052.828q.768.816.768 2.22 0 1.404-.768 2.232zm-2.856-1.068q.288.396.804.396t.792-.396q.288-.408.288-1.164t-.288-1.152q-.276-.408-.792-.408t-.804.408q-.276.396-.276 1.152 0 .756.276 1.164zM371.12319 604.156q-.828 0-1.284-.588-.456-.588-.456-1.668v-3.648h1.764v3.396q0 1.032.768 1.032.828 0 .828-1.188v-3.24h1.752V604h-1.752v-.828q-.432.984-1.62.984zM375.65413 604v-5.748h1.75199v.816q.468-.972 1.632-.972.852 0 1.308.552.456.54.456 1.596V604h-1.776v-3.276q0-.6-.18-.876-.17999-.276-.576-.276-.864 0-.864 1.32V604zM384.5645 602.572q.024 0 .36-.024V604q-.48.096-.924.096-.816 0-1.32-.468-.492-.48-.492-1.38v-2.64h-.732v-1.356h.732v-1.716h1.752v1.716h.936v1.356h-.936v2.172q0 .792.624.792zM386.65569 604.12q-.492 0-.828-.336-.336-.348-.336-.828 0-.468.336-.804.336-.348.828-.348.48 0 .816.348.348.336.348.804 0 .48-.348.828-.336.336-.816.336zM391.01731 604.228q-1.38 0-2.136-.732-.744-.732-.744-2.136h1.848q0 .672.264 1.02.276.336.768.336.408 0 .636-.24.24-.24.24-.648 0-.384-.216-.648t-.684-.504l-1.056-.504q-.864-.42-1.284-.996-.408-.588-.408-1.452 0-1.068.72-1.704.732-.648 1.944-.648 1.32 0 1.992.672.672.672.672 1.968h-1.812q0-1.188-.888-1.188-.384 0-.6.216-.216.216-.216.588t.216.612q.216.228.744.504l1.128.564q.828.444 1.2 1.008.372.552.372 1.38 0 1.152-.744 1.848-.732.684-1.956.684zM399.61044 603.424q-.792.792-2.196.792-1.404 0-2.196-.792-.792-.804-.792-2.256V595.6h1.872v5.484q0 .72.3 1.116.312.396.816.396.516 0 .828-.396.312-.396.312-1.116V595.6h1.86v5.568q0 1.464-.804 2.256zM401.58913 604v-8.4h2.07599l1.596 5.988 1.608-5.988h2.07601v8.4h-1.70401v-5.124L405.87313 604h-1.224l-1.36801-5.124V604zM412.17012 596.752q0 .228-.096.48l-.63599 2.304h-.68401l-.64799-2.304q-.084-.276-.084-.48 0-.456.31199-.768.312-.312.756-.312.45601 0 .768.312.312.312.312.768zm2.47201 0q0 .228-.096.48l-.63601 2.304h-.68399l-.64801-2.304q-.084-.276-.084-.48 0-.456.312-.768.31201-.312.756-.312.456 0 .768.312.31201.312.31201.768zM418.01394 606.316h-2.376v-1.392h.84v-8.328h-.84v-1.392h2.376zM421.41275 599.728v-1.416h4.92v1.416zm0 2.364v-1.416h4.92v1.416zM432.47356 604.168q-1.572 0-2.316-1.032-.732-1.032-.732-3.216t.732-3.216q.744-1.032 2.316-1.032 1.56 0 2.292 1.032.744 1.032.744 3.216t-.744 3.216q-.732 1.032-2.292 1.032zm-1.008-2.052q.288.612 1.008.612t.996-.612q.276-.624.276-2.196t-.276-2.184q-.276-.624-.996-.624t-1.008.624q-.276.612-.276 2.184t.276 2.196zM437.02287 604.12q-.492 0-.82799-.336-.33601-.348-.33601-.828 0-.468.33601-.804.33599-.348.82799-.348.48001 0 .816.348.348.336.348.804 0 .48-.348.828-.33599.336-.816.336zM443.73481 603.532q-.756.636-2.124.636t-2.136-.636q-.756-.648-.756-1.764 0-1.536 1.392-2.028-1.188-.492-1.188-1.896 0-1.008.744-1.584.744-.588 1.944-.588t1.944.588q.744.576.744 1.584 0 1.392-1.2 1.896 1.404.492 1.404 2.028 0 1.116-.768 1.764zm-2.796-4.764q.252.288.672.288.42 0 .66-.288.252-.288.252-.78 0-.468-.252-.732-.24-.276-.66-.276-.432 0-.684.276-.24.264-.24.732 0 .492.252.78zm-.132 3.696q.288.3.804.3t.804-.3q.288-.312.288-.9 0-.54-.3-.852-.288-.312-.792-.312t-.804.312q-.288.312-.288.852 0 .588.288.9zM448.20013 604.168q-1.57201 0-2.31601-1.032-.732-1.032-.732-3.216t.732-3.216q.744-1.032 2.31601-1.032 1.56 0 2.29199 1.032.74401 1.032.74401 3.216t-.74401 3.216q-.73199 1.032-2.29199 1.032zm-1.00801-2.052q.288.612 1.00801.612.71999 0 .99599-.612.276-.624.276-2.196t-.276-2.184q-.276-.624-.99599-.624-.72001 0-1.00801.624-.27599.612-.27599 2.184t.27599 2.196zM455.495 600.004l-.948-.672 1.128-1.392-1.596-.42.36-1.044 1.56.624-.12-1.704h1.152l-.12 1.704 1.548-.624.36 1.044-1.584.42 1.128 1.392-.948.672-.96-1.56zM461.92756 604v-5.748h1.752v.816q.384-.972 1.512-.972 1.176 0 1.524 1.056.444-1.056 1.608-1.056.888 0 1.356.588.48.576.48 1.668V604h-1.764v-3.444q0-.984-.684-.984-.792 0-.792 1.176V604h-1.764v-3.444q0-.984-.684-.984-.792 0-.792 1.176V604zM471.31569 606.316v-11.112h2.376v1.392h-.84v8.328h.84v1.392zM476.83419 596.752q0 .228-.096.48l-.636 2.304h-.684l-.648-2.304q-.084-.276-.084-.48 0-.456.312-.768t.756-.312q.456 0 .768.312t.312.768zm2.472 0q0 .228-.096.48l-.636 2.304h-.684l-.648-2.304q-.084-.276-.084-.48 0-.456.312-.768t.756-.312q.456 0 .768.312t.312.768zM484.73 604l-.3-1.26h-2.34l-.3 1.26h-1.908l2.46-8.4h1.836l2.46 8.4zm-2.304-2.7h1.668l-.84-3.552zM487.35725 604v-5.748h1.752v.816q.384-.972 1.512-.972 1.176 0 1.524 1.056.444-1.056 1.608-1.056.888 0 1.356.588.48.576.48 1.668V604h-1.764v-3.444q0-.984-.684-.984-.792 0-.792 1.176V604h-1.764v-3.444q0-.984-.684-.984-.792 0-.792 1.176V604zM501.20938 603.352q-.75601.816-2.05201.816-1.296 0-2.064-.816-.756-.828-.756-2.232 0-1.404.756-2.22.768-.828 2.064-.828t2.05201.828q.76799.816.76799 2.22 0 1.404-.76799 2.232zm-2.856-1.068q.28799.396.80399.396.51601 0 .792-.396.288-.408.288-1.164t-.288-1.152q-.27599-.408-.792-.408-.516 0-.80399.408-.276.396-.276 1.152 0 .756.276 1.164zM504.45912 604.156q-.828 0-1.284-.588-.45599-.588-.45599-1.668v-3.648h1.76399v3.396q0 1.032.768 1.032.828 0 .828-1.188v-3.24h1.752V604h-1.752v-.828q-.43199.984-1.62.984zM508.99006 604v-5.748h1.752v.816q.468-.972 1.632-.972.852 0 1.308.552.456.54.456 1.596V604h-1.776v-3.276q0-.6-.18-.876t-.576-.276q-.864 0-.864 1.32V604zM517.90044 602.572q.024 0 .36-.024V604q-.48.096-.924.096-.816 0-1.32-.468-.492-.48-.492-1.38v-2.64h-.732v-1.356h.732v-1.716h1.752v1.716h.936v1.356h-.936v2.172q0 .792.624.792zM519.99162 604.12q-.49199 0-.82799-.336-.33601-.348-.33601-.828 0-.468.33601-.804.336-.348.82799-.348.48001 0 .81601.348.34799.336.34799.804 0 .48-.34799.828-.336.336-.81601.336zM524.35325 604.228q-1.38 0-2.136-.732-.744-.732-.744-2.136h1.848q0 .672.264 1.02.276.336.768.336.408 0 .636-.24.24-.24.24-.648 0-.384-.216-.648t-.684-.504l-1.056-.504q-.864-.42-1.284-.996-.408-.588-.408-1.452 0-1.068.72-1.704.732-.648 1.944-.648 1.32 0 1.992.672.672.672.672 1.968h-1.812q0-1.188-.888-1.188-.384 0-.6.216-.216.216-.216.588t.216.612q.216.228.744.504l1.128.564q.828.444 1.2 1.008.372.552.372 1.38 0 1.152-.744 1.848-.732.684-1.956.684zM532.94637 603.424q-.792.792-2.196.792-1.404 0-2.19599-.792-.792-.804-.792-2.256V595.6h1.87199v5.484q0 .72.30001 1.116.31199.396.81599.396.51601 0 .82801-.396.31199-.396.31199-1.116V595.6h1.86v5.568q0 1.464-.804 2.256zM534.92506 604v-8.4h2.076l1.596 5.988 1.608-5.988h2.076v8.4h-1.704v-5.124l-1.368 5.124h-1.224l-1.368-5.124V604zM545.50606 596.752q0 .228-.096.48l-.636 2.304h-.684l-.648-2.304q-.084-.276-.084-.48 0-.456.312-.768t.756-.312q.456 0 .768.312t.312.768zm2.472 0q0 .228-.096.48l-.636 2.304h-.684l-.648-2.304q-.084-.276-.084-.48 0-.456.312-.768t.756-.312q.456 0 .768.312t.312.768zM551.34987 606.316h-2.37599v-1.392h.84v-8.328h-.84v-1.392h2.37599z"/>
        </g>
    </switch>
    <path pointer-events="stroke" stroke-miterlimit="10" stroke="#000" fill="none" d="M160 700v33.63"/>
    <path pointer-events="all" stroke-miterlimit="10" stroke="#000" d="M160 738.88l-3.5-7 3.5 1.75 3.5-1.75z"/>
    <path pointer-events="all" stroke="#000" fill="#fff" d="M80 660h160v40H80z"/>
    <switch transform="translate(-.5 -.5)">
        <g style="fill:#000" aria-label="Cumulative aggregation">
            <path style="fill:#000" d="M103.69544 684.228q-1.68 0-2.568-1.152-.876-1.152-.876-3.276 0-2.124.876-3.276.888-1.152 2.568-1.152 1.5 0 2.304.84.816.828.888 2.412h-1.932q-.06-.816-.36-1.212-.288-.396-.9-.396-.792 0-1.152.696-.36.684-.36 2.088t.36 2.1q.36.684 1.152.684.612 0 .9-.396.3-.396.36-1.212h1.932q-.072 1.584-.888 2.424-.804.828-2.304.828zM109.42788 684.156q-.82801 0-1.28401-.588-.45599-.588-.45599-1.668v-3.648h1.764v3.396q0 1.032.768 1.032.828 0 .828-1.188v-3.24h1.752V684h-1.752v-.828q-.432.984-1.62.984zM113.95881 684v-5.748h1.752v.816q.384-.972 1.512-.972 1.176 0 1.524 1.056.444-1.056 1.608-1.056.888 0 1.356.588.48.576.48 1.668V684h-1.764v-3.444q0-.984-.684-.984-.792 0-.792 1.176V684h-1.764v-3.444q0-.984-.684-.984-.792 0-.792 1.176V684zM124.96694 684.156q-.828 0-1.284-.588-.456-.588-.456-1.668v-3.648h1.764v3.396q0 1.032.768 1.032.828 0 .828-1.188v-3.24h1.752V684h-1.752v-.828q-.432.984-1.62.984zM129.54587 684v-8.4h1.752v8.4zM134.41844 684.156q-1.044 0-1.668-.828-.624-.84-.624-2.208 0-1.368.624-2.196.624-.828 1.668-.828 1.164 0 1.596 1.008v-.852h1.764V684h-1.764v-.852q-.444 1.008-1.596 1.008zm.564-1.476q.516 0 .804-.396.288-.408.288-1.164 0-.744-.288-1.14-.288-.408-.804-.408-.528 0-.804.396t-.276 1.152q0 .756.276 1.164.276.396.804.396zM141.59575 682.572q.024 0 .36-.024V684q-.48.096-.924.096-.816 0-1.32-.468-.492-.48-.492-1.38v-2.64h-.732v-1.356h.732v-1.716h1.752v1.716h.936v1.356h-.936v2.172q0 .792.624.792zM143.66294 677.688q-.468 0-.78-.3-.312-.312-.312-.78 0-.48.312-.78.312-.312.78-.312.48 0 .792.312.312.3.312.78 0 .468-.312.78-.312.3-.792.3zm-.876 6.312v-5.748h1.752V684zM147.24119 684l-2.076-5.748h1.836l1.02 3.54 1.02-3.54h1.848l-2.088 5.748zM156.22731 680.76q0 .444-.048.828h-3.54q.024.6.288.936.264.324.768.324.72 0 .864-.588h1.584q-.12.912-.756 1.416-.624.492-1.68.492-1.344 0-2.064-.78-.72-.792-.72-2.244 0-1.452.72-2.256.72-.816 2.016-.816 1.224 0 1.896.732.672.732.672 1.956zm-3.588-.276h1.92q0-1.236-.912-1.236-.984 0-1.008 1.236zM161.30125 684.156q-1.044 0-1.668-.828-.624-.84-.624-2.208 0-1.368.624-2.196.624-.828 1.668-.828 1.164 0 1.596 1.008v-.852h1.764V684h-1.764v-.852q-.444 1.008-1.596 1.008zm.564-1.476q.516 0 .804-.396.288-.408.288-1.164 0-.744-.288-1.14-.288-.408-.804-.408-.528 0-.804.396t-.276 1.152q0 .756.276 1.164.276.396.804.396zM169.34256 678.252h1.752v5.724q0 1.536-1.008 2.184-.696.432-1.74.432t-1.74-.48q-.828-.54-.9-1.512h1.764q.036.324.264.516.24.204.66.204.948 0 .948-1.116v-1.14q-.432.984-1.608.984-1.032 0-1.656-.804-.624-.816-.624-2.172 0-1.356.624-2.16.624-.816 1.656-.816 1.164 0 1.608 1.008zm-1.032 4.428q.516 0 .804-.396.288-.408.288-1.164 0-.744-.288-1.14-.288-.408-.804-.408-.528 0-.804.396t-.276 1.152q0 .756.276 1.164.276.396.804.396zM175.78788 678.252h1.75199v5.724q0 1.536-1.00799 2.184-.69601.432-1.74001.432t-1.74-.48q-.828-.54-.9-1.512h1.764q.036.324.264.516.24.204.66.204.94801 0 .94801-1.116v-1.14q-.43201.984-1.60801.984-1.032 0-1.656-.804-.624-.816-.624-2.172 0-1.356.624-2.16.624-.816 1.656-.816 1.164 0 1.60801 1.008zm-1.03201 4.428q.516 0 .804-.396.288-.408.288-1.164 0-.744-.288-1.14-.288-.408-.804-.408-.528 0-.804.396t-.276 1.152q0 .756.276 1.164.276.396.804.396zM178.69319 684v-5.748h1.62v1.344q.108-.684.48-1.056.384-.384.924-.384.108 0 .324.024v1.728q-.144-.024-.336-.024-.648 0-.96.444-.3.432-.3 1.38V684zM187.68044 680.76q0 .444-.048.828h-3.54q.024.6.288.936.264.324.768.324.72 0 .864-.588h1.584q-.12.912-.756 1.416-.624.492-1.68.492-1.344 0-2.064-.78-.72-.792-.72-2.244 0-1.452.72-2.256.72-.816 2.016-.816 1.224 0 1.896.732.672.732.672 1.956zm-3.588-.276h1.92q0-1.236-.912-1.236-.984 0-1.008 1.236zM192.10038 678.252h1.75199v5.724q0 1.536-1.00799 2.184-.69601.432-1.74001.432t-1.74-.48q-.828-.54-.9-1.512h1.764q.036.324.264.516.24.204.66.204.94801 0 .94801-1.116v-1.14q-.43201.984-1.60801.984-1.032 0-1.656-.804-.624-.816-.624-2.172 0-1.356.624-2.16.624-.816 1.656-.816 1.164 0 1.60801 1.008zm-1.03201 4.428q.516 0 .804-.396.288-.408.288-1.164 0-.744-.288-1.14-.288-.408-.804-.408-.528 0-.804.396t-.276 1.152q0 .756.276 1.164.276.396.804.396zM196.94969 684.156q-1.044 0-1.668-.828-.624-.84-.624-2.208 0-1.368.624-2.196.624-.828 1.668-.828 1.164 0 1.596 1.008v-.852h1.764V684h-1.764v-.852q-.444 1.008-1.596 1.008zm.564-1.476q.516 0 .804-.396.288-.408.288-1.164 0-.744-.288-1.14-.288-.408-.804-.408-.528 0-.804.396t-.276 1.152q0 .756.276 1.164.276.396.804.396zM204.127 682.572q.024 0 .36-.024V684q-.48.096-.924.096-.816 0-1.32-.468-.492-.48-.492-1.38v-2.64h-.732v-1.356h.732v-1.716h1.752v1.716h.936v1.356h-.936v2.172q0 .792.624.792zM206.19419 677.688q-.468 0-.78-.3-.312-.312-.312-.78 0-.48.312-.78.312-.312.78-.312.48 0 .792.312.312.3.312.78 0 .468-.312.78-.312.3-.792.3zm-.876 6.312v-5.748h1.752V684zM212.74844 683.352q-.756.816-2.052.816t-2.064-.816q-.756-.828-.756-2.232 0-1.404.756-2.22.768-.828 2.064-.828t2.052.828q.768.816.768 2.22 0 1.404-.768 2.232zm-2.856-1.068q.288.396.804.396t.792-.396q.288-.408.288-1.164t-.288-1.152q-.276-.408-.792-.408t-.804.408q-.276.396-.276 1.152 0 .756.276 1.164zM214.31819 684v-5.748h1.752v.816q.468-.972 1.632-.972.852 0 1.308.552.456.54.456 1.596V684h-1.776v-3.276q0-.6-.18-.876t-.576-.276q-.864 0-.864 1.32V684z"/>
        </g>
    </switch>
    <path pointer-events="all" fill="#e43935" d="M75 800l20-60h150l-20 60z"/>
    <switch transform="translate(-.5 -.5)">
        <g style="fill:#fff" aria-label="m[&quot;Cumulative Amount&quot;]">
            <path style="fill:#fff" d="M98.079906 774v-5.748h1.752v.816q.384004-.972 1.512004-.972 1.176 0 1.524 1.056.444-1.056 1.608-1.056.888 0 1.356.588.48.576.48 1.668V774h-1.764v-3.444q0-.984-.684-.984-.792 0-.792 1.176V774h-1.764v-3.444q0-.984-.684-.984-.792004 0-.792004 1.176V774zM107.46803 776.316v-11.112h2.376v1.392h-.84v8.328h.84v1.392zM112.98653 766.752q0 .228-.096.48l-.636 2.304h-.684l-.648-2.304q-.084-.276-.084-.48 0-.456.312-.768t.756-.312q.456 0 .768.312t.312.768zm2.472 0q0 .228-.096.48l-.636 2.304h-.684l-.648-2.304q-.084-.276-.084-.48 0-.456.312-.768t.756-.312q.456 0 .768.312t.312.768zM119.57434 774.228q-1.68 0-2.568-1.152-.876-1.152-.876-3.276 0-2.124.876-3.276.888-1.152 2.568-1.152 1.5 0 2.304.84.816.828.888 2.412h-1.932q-.06-.816-.36-1.212-.288-.396-.9-.396-.792 0-1.152.696-.36.684-.36 2.088t.36 2.1q.36.684 1.152.684.612 0 .9-.396.3-.396.36-1.212h1.932q-.072 1.584-.888 2.424-.804.828-2.304.828zM125.30678 774.156q-.828 0-1.284-.588-.456-.588-.456-1.668v-3.648h1.764v3.396q0 1.032.768 1.032.828 0 .828-1.188v-3.24h1.752V774h-1.752v-.828q-.432.984-1.62.984zM129.83772 774v-5.748h1.752v.816q.384-.972 1.512-.972 1.176 0 1.524 1.056.444-1.056 1.608-1.056.888 0 1.356.588.48.576.48 1.668V774h-1.764v-3.444q0-.984-.684-.984-.792 0-.792 1.176V774h-1.764v-3.444q0-.984-.684-.984-.792 0-.792 1.176V774zM140.84584 774.156q-.828 0-1.284-.588-.456-.588-.456-1.668v-3.648h1.764v3.396q0 1.032.768 1.032.828 0 .828-1.188v-3.24h1.752V774h-1.752v-.828q-.432.984-1.62.984zM145.42478 774v-8.4h1.752v8.4zM150.29734 774.156q-1.044 0-1.668-.828-.624-.84-.624-2.208 0-1.368.624-2.196.624-.828 1.668-.828 1.164 0 1.596 1.008v-.852h1.764V774h-1.764v-.852q-.444 1.008-1.596 1.008zm.564-1.476q.516 0 .804-.396.288-.408.288-1.164 0-.744-.288-1.14-.288-.408-.804-.408-.528 0-.804.396t-.276 1.152q0 .756.276 1.164.276.396.804.396zM157.47466 772.572q.024 0 .36-.024V774q-.48.096-.924.096-.816 0-1.32-.468-.492-.48-.492-1.38v-2.64h-.732v-1.356h.732v-1.716h1.752v1.716h.936v1.356h-.936v2.172q0 .792.624.792zM159.54184 767.688q-.468 0-.78-.3-.312-.312-.312-.78 0-.48.312-.78.312-.312.78-.312.48 0 .792.312.312.3.312.78 0 .468-.312.78-.312.3-.792.3zm-.876 6.312v-5.748h1.752V774zM163.12009 774l-2.076-5.748h1.836l1.02 3.54 1.02-3.54h1.848l-2.088 5.748zM172.10622 770.76q0 .444-.048.828h-3.54q.024.6.288.936.264.324.768.324.72 0 .864-.588h1.584q-.12.912-.756 1.416-.624.492-1.68.492-1.344 0-2.064-.78-.72-.792-.72-2.244 0-1.452.72-2.256.72-.816 2.016-.816 1.224 0 1.896.732.672.732.672 1.956zm-3.588-.276h1.92q0-1.236-.912-1.236-.984 0-1.008 1.236zM179.64016 774l-.3-1.26h-2.34l-.3 1.26h-1.908l2.46-8.4h1.836l2.46 8.4zm-2.304-2.7h1.668l-.84-3.552zM182.26741 774v-5.748h1.752v.816q.384-.972 1.512-.972 1.176 0 1.524 1.056.444-1.056 1.608-1.056.888 0 1.356.588.48.576.48 1.668V774h-1.764v-3.444q0-.984-.684-.984-.792 0-.792 1.176V774h-1.764v-3.444q0-.984-.684-.984-.792 0-.792 1.176V774zM196.11953 773.352q-.756.816-2.052.816t-2.064-.816q-.756-.828-.756-2.232 0-1.404.756-2.22.768-.828 2.064-.828t2.052.828q.768.816.768 2.22 0 1.404-.768 2.232zm-2.856-1.068q.288.396.804.396t.792-.396q.288-.408.288-1.164t-.288-1.152q-.276-.408-.792-.408t-.804.408q-.276.396-.276 1.152 0 .756.276 1.164zM199.36928 774.156q-.828 0-1.284-.588-.456-.588-.456-1.668v-3.648h1.764v3.396q0 1.032.768 1.032.828 0 .828-1.188v-3.24h1.752V774h-1.752v-.828q-.432.984-1.62.984zM203.90022 774v-5.748h1.752v.816q.468-.972 1.632-.972.852 0 1.308.552.456.54.456 1.596V774h-1.776v-3.276q0-.6-.18-.876t-.576-.276q-.864 0-.864 1.32V774zM212.81059 772.572q.024 0 .36-.024V774q-.48.096-.924.096-.816 0-1.32-.468-.492-.48-.492-1.38v-2.64h-.732v-1.356h.732v-1.716h1.752v1.716h.936v1.356h-.936v2.172q0 .792.624.792zM216.01778 766.752q0 .228-.096.48l-.636 2.304h-.684l-.648-2.304q-.084-.276-.084-.48 0-.456.312-.768t.756-.312q.456 0 .768.312t.312.768zm2.472 0q0 .228-.096.48l-.636 2.304h-.684l-.648-2.304q-.084-.276-.084-.48 0-.456.312-.768t.756-.312q.456 0 .768.312t.312.768zM221.86159 776.316h-2.376v-1.392h.84v-8.328h-.84v-1.392h2.376z"/>
        </g>
    </switch>
    <path pointer-events="stroke" stroke-miterlimit="10" stroke="#000" fill="none" d="M250 340h30v93.63"/>
    <path pointer-events="all" stroke-miterlimit="10" stroke="#000" d="M280 438.88l-3.5-7 3.5 1.75 3.5-1.75z"/>
    <path pointer-events="stroke" stroke-miterlimit="10" stroke="#000" fill="none" d="M70 340H40v300h120v13.63"/>
    <path pointer-events="all" stroke-miterlimit="10" stroke="#000" d="M160 658.88l-3.5-7 3.5 1.75 3.5-1.75z"/>
    <path pointer-events="all" d="M160 280l90 60-90 60-90-60z"/>
    <switch transform="translate(-.5 -.5)">
        <g style="fill:#fff" aria-label="lvl[&quot;Country Simulation&quot;]">
            <path style="fill:#fff" d="M98.069312 344v-8.4h1.752001v8.4zM102.45212 344l-2.07599-5.748h1.836l1.01999 3.54 1.02001-3.54h1.848L104.01212 344zM106.76462 344v-8.4h1.75201v8.4zM109.75319 346.316v-11.112h2.376v1.392h-.84v8.328h.84v1.392zM115.27169 336.752q0 .228-.096.48l-.636 2.304h-.684l-.648-2.304q-.084-.276-.084-.48 0-.456.312-.768t.756-.312q.456 0 .768.312t.312.768zm2.472 0q0 .228-.096.48l-.636 2.304h-.684l-.648-2.304q-.084-.276-.084-.48 0-.456.312-.768t.756-.312q.456 0 .768.312t.312.768zM121.8595 344.228q-1.68 0-2.568-1.152-.876-1.152-.876-3.276 0-2.124.876-3.276.888-1.152 2.568-1.152 1.5 0 2.304.84.816.828.888 2.412h-1.932q-.06-.816-.36-1.212-.288-.396-.9-.396-.792 0-1.152.696-.36.684-.36 2.088t.36 2.1q.36.684 1.152.684.612 0 .9-.396.3-.396.36-1.212h1.932q-.072 1.584-.888 2.424-.804.828-2.304.828zM130.55312 343.352q-.756.816-2.052.816t-2.064-.816q-.756-.828-.756-2.232 0-1.404.756-2.22.768-.828 2.064-.828t2.052.828q.768.816.768 2.22 0 1.404-.768 2.232zm-2.85599-1.068q.28799.396.80399.396t.792-.396q.288-.408.288-1.164t-.288-1.152q-.276-.408-.792-.408t-.80399.408q-.276.396-.276 1.152 0 .756.276 1.164zM133.80287 344.156q-.828 0-1.284-.588-.456-.588-.456-1.668v-3.648h1.764v3.396q0 1.032.768 1.032.828 0 .828-1.188v-3.24h1.752V344h-1.752v-.828q-.432.984-1.62.984zM138.33381 344v-5.748h1.752v.816q.468-.972 1.632-.972.852 0 1.308.552.456.54.456 1.596V344h-1.776v-3.276q0-.6-.18-.876t-.576-.276q-.864 0-.864 1.32V344zM147.24419 342.572q.024 0 .36-.024V344q-.48.096-.924.096-.816 0-1.32-.468-.492-.48-.492-1.38v-2.64h-.732v-1.356h.732v-1.716h1.752v1.716h.936v1.356h-.936v2.172q0 .792.624.792zM148.43537 344v-5.748h1.62v1.344q.108-.684.48-1.056.384-.384.924-.384.108 0 .324.024v1.728q-.144-.024-.336-.024-.648 0-.96.444-.3.432-.3 1.38V344zM155.90725 338.252h1.752v5.688q0 1.524-.852 2.172-.648.48-1.728.48-1.068 0-1.704-.42-.804-.54-.816-1.572h1.668q.06.72.84.72.432 0 .636-.3.204-.288.204-.936v-1.02q-.432.984-1.62.984-.864 0-1.308-.612-.432-.612-.432-1.632v-3.552h1.764v3.312q0 1.044.768 1.044.828 0 .828-1.176zM163.6345 344.228q-1.38 0-2.136-.732-.744-.732-.744-2.136h1.848q0 .672.264 1.02.276.336.768.336.408 0 .636-.24.24-.24.24-.648 0-.384-.216-.648t-.684-.504l-1.056-.504q-.864-.42-1.284-.996-.408-.588-.408-1.452 0-1.068.72-1.704.732-.648 1.944-.648 1.32 0 1.992.672.672.672.672 1.968h-1.812q0-1.188-.888-1.188-.384 0-.6.216-.216.216-.216.588t.216.612q.216.228.744.504l1.128.564q.828.444 1.2 1.008.372.552.372 1.38 0 1.152-.744 1.848-.732.684-1.956.684zM167.96762 337.688q-.468 0-.78-.3-.31199-.312-.31199-.78 0-.48.31199-.78.312-.312.78-.312.48 0 .792.312.312.3.312.78 0 .468-.312.78-.312.3-.792.3zm-.876 6.312v-5.748h1.752V344zM169.99787 344v-5.748h1.752v.816q.384-.972 1.512-.972 1.176 0 1.524 1.056.444-1.056 1.608-1.056.88801 0 1.356.588.48.576.48 1.668V344h-1.764v-3.444q0-.984-.68399-.984-.79201 0-.79201 1.176V344h-1.764v-3.444q0-.984-.684-.984-.792 0-.792 1.176V344zM181.006 344.156q-.828 0-1.284-.588-.456-.588-.456-1.668v-3.648h1.764v3.396q0 1.032.768 1.032.828 0 .828-1.188v-3.24h1.752V344h-1.752v-.828q-.432.984-1.62.984zM185.58494 344v-8.4h1.752v8.4zM190.4575 344.156q-1.044 0-1.668-.828-.624-.84-.624-2.208 0-1.368.624-2.196.624-.828 1.668-.828 1.164 0 1.596 1.008v-.852h1.764V344h-1.764v-.852q-.444 1.008-1.596 1.008zm.564-1.476q.516 0 .804-.396.288-.408.288-1.164 0-.744-.288-1.14-.288-.408-.804-.408-.528 0-.804.396t-.276 1.152q0 .756.276 1.164.276.396.804.396zM197.63481 342.572q.024 0 .36-.024V344q-.48.096-.924.096-.816 0-1.32-.468-.492-.48-.492-1.38v-2.64h-.732v-1.356h.732v-1.716h1.752v1.716h.936v1.356h-.936v2.172q0 .792.624.792zM199.702 337.688q-.468 0-.78-.3-.312-.312-.312-.78 0-.48.312-.78.312-.312.78-.312.48 0 .792.312.312.3.312.78 0 .468-.312.78-.312.3-.792.3zm-.876 6.312v-5.748h1.752V344zM206.25625 343.352q-.756.816-2.052.816t-2.064-.816q-.756-.828-.756-2.232 0-1.404.756-2.22.768-.828 2.064-.828t2.052.828q.768.816.768 2.22 0 1.404-.768 2.232zm-2.856-1.068q.288.396.804.396t.792-.396q.288-.408.288-1.164t-.288-1.152q-.276-.408-.792-.408t-.804.408q-.276.396-.276 1.152 0 .756.276 1.164zM207.826 344v-5.748h1.752v.816q.468-.972 1.632-.972.852 0 1.308.552.456.54.456 1.596V344h-1.776v-3.276q0-.6-.18-.876t-.576-.276q-.864 0-.864 1.32V344zM216.07638 336.752q0 .228-.096.48l-.63599 2.304h-.68401l-.648-2.304q-.084-.276-.084-.48 0-.456.312-.768t.756-.312q.456 0 .768.312.31201.312.31201.768zm2.47199 0q0 .228-.096.48l-.636 2.304h-.684l-.648-2.304q-.084-.276-.084-.48 0-.456.312-.768t.756-.312q.456 0 .768.312t.312.768zM221.92019 346.316h-2.376v-1.392h.84v-8.328h-.84v-1.392h2.376z"/>
        </g>
    </switch>
    <path pointer-events="all" fill="none" d="M0 490h40v20H0z"/>
    <switch transform="translate(-.5 -.5)">
        <g style="fill:#000" aria-label="Base">
            <path style="fill:#000" d="M12.548 499.704q.768.084 1.236.624.48.528.48 1.344 0 1.092-.732 1.716-.732.612-2.04.612H8.636v-8.4h2.856q1.248 0 1.944.576.708.576.708 1.608 0 .78-.42 1.272-.408.48-1.176.648zm-1.368-2.772h-.696v2.136h.672q.54 0 .828-.276.3-.288.3-.792 0-1.068-1.104-1.068zm0 5.676q1.2 0 1.2-1.14 0-.492-.3-.792-.288-.3-.768-.3h-.828v2.232zM17.0825 504.156q-1.044 0-1.668-.828-.624-.84-.624-2.208 0-1.368.624-2.196.624-.828 1.668-.828 1.164 0 1.596 1.008v-.852h1.764V504h-1.764v-.852q-.444 1.008-1.596 1.008zm.564-1.476q.516 0 .804-.396.288-.408.288-1.164 0-.744-.288-1.14-.288-.408-.804-.408-.528 0-.804.396t-.276 1.152q0 .756.276 1.164.276.396.804.396zM23.671813 504.168q-1.104001 0-1.776001-.54-.659999-.552-.659999-1.368h1.727999q0 .324.192.528.204.192.54.192.276 0 .432-.144.168-.156.168-.42 0-.408-.468-.564l-1.116-.312q-.648-.192-1.007999-.624-.348001-.444-.348001-1.032 0-.792.6-1.296.612-.516 1.632-.516 1.092 0 1.692.504.612.504.612 1.308h-1.668q0-.672-.647999-.672-.264 0-.432001.144-.156.132-.156.348 0 .384.504001.564l1.163999.372q1.308.42 1.308 1.584 0 .876-.612 1.416-.6.528-1.679999.528zM31.766375 500.76q0 .444-.048.828h-3.54q.024.6.288.936.264.324.768.324.72 0 .864-.588h1.584q-.12.912-.756 1.416-.624.492-1.68.492-1.344 0-2.064-.78-.72-.792-.72-2.244 0-1.452.72-2.256.72-.816 2.016-.816 1.224 0 1.896.732.672.732.672 1.956zm-3.588-.276h1.92q0-1.236-.912-1.236-.984 0-1.008 1.236z"/>
        </g>
    </switch>
    <path pointer-events="all" fill="none" d="M280 380h80v20h-80z"/>
    <switch transform="translate(-.5 -.5)">
        <g style="fill:#000" aria-label="France crisis">
            <path style="fill:#000" d="M289.60475 394v-8.4h4.308v1.572h-2.448v2.232h2.448v1.608h-2.448V394zM294.91194 394v-5.748h1.62v1.344q.108-.684.48-1.056.384-.384.924-.384.108 0 .324.024v1.728q-.144-.024-.336-.024-.648 0-.96.444-.3.432-.3 1.38V394zM300.86375 394.156q-1.044 0-1.668-.828-.624-.84-.624-2.208 0-1.368.624-2.196.624-.828 1.668-.828 1.164 0 1.596 1.008v-.852h1.764V394h-1.764v-.852q-.444 1.008-1.596 1.008zm.564-1.476q.516 0 .804-.396.288-.408.288-1.164 0-.744-.288-1.14-.288-.408-.804-.408-.528 0-.804.396t-.276 1.152q0 .756.276 1.164.276.396.804.396zM305.36506 394v-5.748h1.752v.816q.468-.972 1.632-.972.852 0 1.308.552.456.54.456 1.596V394h-1.776v-3.276q0-.6-.18-.876t-.576-.276q-.864 0-.864 1.32V394zM313.96344 394.168q-1.272 0-1.992-.816t-.72-2.232q0-1.392.732-2.22.744-.828 1.98-.828 1.224 0 1.896.612.672.6.684 1.728h-1.704q-.048-.864-.852-.864-.468 0-.732.42-.264.408-.264 1.152 0 1.572 1.02 1.572.756 0 .828-.816h1.704q-.06 1.116-.732 1.704-.66.588-1.848.588zM322.41481 390.76q0 .444-.048.828h-3.54q.024.6.288.936.264.324.768.324.72 0 .864-.588h1.584q-.12.912-.756 1.416-.624.492-1.68.492-1.344 0-2.064-.78-.72-.792-.72-2.244 0-1.452.72-2.256.72-.816 2.016-.816 1.224 0 1.896.732.672.732.672 1.956zm-3.588-.276h1.92q0-1.236-.912-1.236-.984 0-1.008 1.236zM327.90875 394.168q-1.272 0-1.992-.816t-.72-2.232q0-1.392.732-2.22.744-.828 1.98-.828 1.224 0 1.896.612.672.6.684 1.728h-1.704q-.048-.864-.852-.864-.468 0-.732.42-.264.408-.264 1.152 0 1.572 1.02 1.572.756 0 .828-.816h1.704q-.06 1.116-.732 1.704-.66.588-1.848.588zM331.31038 394v-5.748h1.62v1.344q.10799-.684.47999-1.056.384-.384.92401-.384.108 0 .32399.024v1.728q-.144-.024-.33599-.024-.64801 0-.96001.444-.3.432-.3 1.38V394zM336.31137 387.688q-.468 0-.77999-.3-.312-.312-.312-.78 0-.48.312-.78.31199-.312.77999-.312.48001 0 .79201.312.31199.3.31199.78 0 .468-.31199.78-.312.3-.79201.3zm-.87599 6.312v-5.748h1.75199V394zM340.42962 394.168q-1.104 0-1.776-.54-.66-.552-.66-1.368h1.72801q0 .324.192.528.20399.192.53999.192.276 0 .432-.144.168-.156.168-.42 0-.408-.468-.564l-1.116-.312q-.648-.192-1.00799-.624-.348-.444-.348-1.032 0-.792.59999-1.296.612-.516 1.632-.516 1.09201 0 1.692.504.61201.504.61201 1.308h-1.66801q0-.672-.648-.672-.264 0-.43199.144-.156.132-.156.348 0 .384.50399.564l1.16401.372q1.308.42 1.308 1.584 0 .876-.61201 1.416-.59999.528-1.68.528zM344.39731 387.688q-.468 0-.78-.3-.312-.312-.312-.78 0-.48.312-.78.312-.312.78-.312.48 0 .792.312.312.3.312.78 0 .468-.312.78-.312.3-.792.3zm-.876 6.312v-5.748h1.752V394zM348.51556 394.168q-1.104 0-1.776-.54-.66-.552-.66-1.368h1.728q0 .324.192.528.204.192.54.192.276 0 .432-.144.168-.156.168-.42 0-.408-.468-.564l-1.116-.312q-.648-.192-1.008-.624-.348-.444-.348-1.032 0-.792.6-1.296.612-.516 1.632-.516 1.092 0 1.692.504.612.504.612 1.308h-1.668q0-.672-.648-.672-.264 0-.432.144-.156.132-.156.348 0 .384.504.564l1.164.372q1.308.42 1.308 1.584 0 .876-.612 1.416-.6.528-1.68.528z"/>
        </g>
    </switch>
    <path pointer-events="all" fill="none" d="M440 530h50v20h-50z"/>
    <switch transform="translate(-.5 -.5)">
        <g style="fill:#000" aria-label="France">
            <path style="fill:#000" d="M448.79616 544v-8.4h4.308v1.572h-2.448v2.232h2.448v1.608h-2.448V544zM454.10334 544v-5.748h1.62v1.344q.108-.684.48-1.056.384-.384.924-.384.108 0 .324.024v1.728q-.144-.024-.336-.024-.648 0-.96.444-.3.432-.3 1.38V544zM460.05516 544.156q-1.044 0-1.668-.828-.624-.84-.624-2.208 0-1.368.624-2.196.624-.828 1.668-.828 1.164 0 1.596 1.008v-.852h1.764V544h-1.764v-.852q-.444 1.008-1.596 1.008zm.564-1.476q.516 0 .804-.396.288-.408.288-1.164 0-.744-.288-1.14-.288-.408-.804-.408-.528 0-.804.396t-.276 1.152q0 .756.276 1.164.276.396.804.396zM464.55647 544v-5.748h1.752v.816q.468-.972 1.632-.972.852 0 1.308.552.456.54.456 1.596V544h-1.776v-3.276q0-.6-.18-.876t-.576-.276q-.864 0-.864 1.32V544zM473.15484 544.168q-1.272 0-1.992-.816t-.72-2.232q0-1.392.732-2.22.744-.828 1.98-.828 1.224 0 1.896.612.672.6.684 1.728h-1.704q-.048-.864-.852-.864-.468 0-.732.42-.264.408-.264 1.152 0 1.572 1.02 1.572.756 0 .828-.816h1.704q-.06 1.116-.732 1.704-.66.588-1.848.588zM481.60622 540.76q0 .444-.048.828h-3.54q.024.6.288.936.264.324.768.324.72 0 .864-.588h1.584q-.12.912-.756 1.416-.624.492-1.68.492-1.344 0-2.064-.78-.72-.792-.72-2.244 0-1.452.72-2.256.72-.816 2.016-.816 1.224 0 1.896.732.672.732.672 1.956zm-3.588-.276h1.92q0-1.236-.912-1.236-.984 0-1.008 1.236z"/>
        </g>
    </switch>
    <path pointer-events="all" fill="none" d="M100 550h60v30h-60z"/>
    <switch transform="translate(-.5 -.5)">
        <g style="fill:#000" aria-label="anything else">
            <path style="fill:#000" d="M87.180156 569.156q-1.044 0-1.668-.828-.624-.84-.624-2.208 0-1.368.624-2.196.624-.828 1.668-.828 1.164 0 1.596 1.008v-.852h1.764V569h-1.764v-.852q-.444 1.008-1.596 1.008zm.564-1.476q.516 0 .804-.396.288-.408.288-1.164 0-.744-.288-1.14-.288-.408-.804-.408-.528 0-.804.396t-.276 1.152q0 .756.276 1.164.276.396.804.396zM91.681469 569v-5.748h1.752v.816q.468-.972 1.632-.972.852 0 1.308.552.456.54.456 1.596V569h-1.776v-3.276q0-.6-.18-.876t-.576-.276q-.864 0-.864 1.32V569zM101.21584 563.252h1.752v5.688q0 1.524-.852 2.172-.648.48-1.728.48-1.067996 0-1.703996-.42-.804-.54-.816-1.572h1.668q.06.72.839996.72.432 0 .636-.3.204-.288.204-.936v-1.02q-.432.984-1.619996.984-.864 0-1.308-.612-.432-.612-.432-1.632v-3.552h1.764v3.312q0 1.044.767996 1.044.828 0 .828-1.176zM106.80278 567.572q.024 0 .36-.024V569q-.48.096-.924.096-.816 0-1.32-.468-.492-.48-.492-1.38v-2.64h-.732v-1.356h.732v-1.716h1.752v1.716h.936v1.356h-.936v2.172q0 .792.624.792zM111.42597 563.096q.852 0 1.308.552.456.54.456 1.596V569h-1.776v-3.276q0-.6-.18-.876t-.576-.276q-.864 0-.864 1.32V569h-1.752v-8.4h1.752v3.468q.468-.972 1.632-.972zM115.15122 562.688q-.468 0-.78-.3-.312-.312-.312-.78 0-.48.312-.78.312-.312.78-.312.48 0 .792.312.312.3.312.78 0 .468-.312.78-.312.3-.792.3zm-.876 6.312v-5.748h1.752V569zM117.18147 569v-5.748h1.752v.816q.468-.972 1.632-.972.852 0 1.308.552.456.54.456 1.596V569h-1.776v-3.276q0-.6-.18-.876t-.576-.276q-.864 0-.864 1.32V569zM126.95584 563.252h1.752v5.724q0 1.536-1.008 2.184-.696.432-1.74.432t-1.74-.48q-.828-.54-.9-1.512h1.764q.036.324.264.516.24.204.66.204.948 0 .948-1.116v-1.14q-.432.984-1.608.984-1.032 0-1.656-.804-.624-.816-.624-2.172 0-1.356.624-2.16.624-.816 1.656-.816 1.164 0 1.608 1.008zm-1.032 4.428q.516 0 .804-.396.288-.408.288-1.164 0-.744-.288-1.14-.288-.408-.804-.408-.528 0-.804.396t-.276 1.152q0 .756.276 1.164.276.396.804.396zM137.13747 565.76q0 .444-.048.828h-3.54q.024.6.288.936.264.324.768.324.72 0 .864-.588h1.584q-.12.912-.756 1.416-.624.492-1.68.492-1.344 0-2.064-.78-.72-.792-.72-2.244 0-1.452.72-2.256.72-.816 2.016-.816 1.224 0 1.896.732.672.732.672 1.956zm-3.588-.276h1.92q0-1.236-.912-1.236-.984 0-1.008 1.236zM137.99509 569v-8.4h1.752v8.4zM143.01166 569.168q-1.104 0-1.776-.54-.66-.552-.66-1.368h1.728q0 .324.192.528.204.192.54.192.276 0 .432-.144.168-.156.168-.42 0-.408-.468-.564l-1.116-.312q-.648-.192-1.008-.624-.348-.444-.348-1.032 0-.792.6-1.296.612-.516 1.632-.516 1.092 0 1.692.504.612.504.612 1.308h-1.668q0-.672-.648-.672-.264 0-.432.144-.156.132-.156.348 0 .384.504.564l1.164.372q1.308.42 1.308 1.584 0 .876-.612 1.416-.6.528-1.68.528zM151.10622 565.76q0 .444-.048.828h-3.54q.024.6.288.936.264.324.768.324.72 0 .864-.588h1.584q-.12.912-.756 1.416-.624.492-1.68.492-1.344 0-2.064-.78-.72-.792-.72-2.244 0-1.452.72-2.256.72-.816 2.016-.816 1.224 0 1.896.732.672.732.672 1.956zm-3.588-.276h1.92q0-1.236-.912-1.236-.984 0-1.008 1.236z"/>
        </g>
    </switch>
    <path pointer-events="stroke" stroke-miterlimit="10" stroke="#000" fill="none" d="M160 60v33.63"/>
    <path pointer-events="all" stroke-miterlimit="10" stroke="#000" d="M160 98.88l-3.5-7 3.5 1.75 3.5-1.75z"/>
    <path pointer-events="all" fill="#e43935" d="M80 0h180q-40 30 0 60H80Q40 30 80 0z"/>
    <switch transform="translate(-.5 -.5)">
        <g style="fill:#fff" aria-label="sales_store[&quot;Amount&quot;]">
            <path style="fill:#fff" d="M106.36713 34.168q-1.104 0-1.776-.54-.66001-.552-.66001-1.368h1.72801q0 .324.19199.528.20401.192.54001.192.276 0 .432-.144.16799-.156.16799-.42 0-.408-.468-.564l-1.116-.312q-.648-.192-1.008-.624-.34799-.444-.34799-1.032 0-.792.59999-1.296.61201-.516 1.632-.516 1.092 0 1.69201.504.612.504.612 1.308h-1.66801q0-.672-.648-.672-.26399 0-.432.144-.15599.132-.15599.348 0 .384.50399.564l1.164.372q1.30801.42 1.30801 1.584 0 .876-.61201 1.416-.59999.528-1.67999.528zM111.44969 34.156q-1.044 0-1.668-.828-.624-.84-.624-2.208 0-1.368.624-2.196.624-.828 1.668-.828 1.164 0 1.596 1.008v-.852h1.764V34h-1.764v-.852q-.444 1.008-1.596 1.008zm.564-1.476q.516 0 .804-.396.288-.408.288-1.164 0-.744-.288-1.14-.288-.408-.804-.408-.528 0-.804.396t-.276 1.152q0 .756.276 1.164.276.396.804.396zM115.999 34v-8.4h1.752V34zM123.88356 30.76q0 .444-.048.828h-3.54q.024.6.288.936.264.324.768.324.72 0 .864-.588h1.584q-.12.912-.756 1.416-.624.492-1.68.492-1.344 0-2.064-.78-.72-.792-.72-2.244 0-1.452.72-2.256.72-.816 2.016-.816 1.224 0 1.896.732.672.732.672 1.956zm-3.588-.276h1.92q0-1.236-.912-1.236-.984 0-1.008 1.236zM126.82806 34.168q-1.104 0-1.776-.54-.66-.552-.66-1.368h1.728q0 .324.192.528.204.192.54.192.276 0 .432-.144.168-.156.168-.42 0-.408-.468-.564l-1.116-.312q-.648-.192-1.008-.624-.348-.444-.348-1.032 0-.792.6-1.296.612-.516 1.632-.516 1.092 0 1.692.504.612.504.612 1.308h-1.668q0-.672-.648-.672-.264 0-.432.144-.156.132-.156.348 0 .384.504.564l1.164.372q1.308.42 1.308 1.584 0 .876-.612 1.416-.6.528-1.68.528zM129.34375 36.424v-1.08h5.172v1.08zM137.18744 34.168q-1.104 0-1.776-.54-.66-.552-.66-1.368h1.728q0 .324.192.528.204.192.54.192.276 0 .432-.144.168-.156.168-.42 0-.408-.468-.564l-1.116-.312q-.648-.192-1.008-.624-.348-.444-.348-1.032 0-.792.6-1.296.612-.516 1.632-.516 1.092 0 1.692.504.612.504.612 1.308h-1.668q0-.672-.648-.672-.264 0-.432.144-.156.132-.156.348 0 .384.504.564l1.164.372q1.308.42 1.308 1.584 0 .876-.612 1.416-.6.528-1.68.528zM142.90825 32.572q.024 0 .36-.024V34q-.48.096-.924.096-.816 0-1.32-.468-.492-.48-.492-1.38v-2.64h-.732v-1.356h.732v-1.716h1.752v1.716h.936v1.356h-.936v2.172q0 .792.624.792zM148.6 33.352q-.756.816-2.052.816t-2.064-.816q-.756-.828-.756-2.232 0-1.404.756-2.22.768-.828 2.064-.828t2.052.828q.768.816.768 2.22 0 1.404-.768 2.232zm-2.856-1.068q.288.396.804.396t.792-.396q.288-.408.288-1.164t-.288-1.152q-.276-.408-.792-.408t-.804.408q-.276.396-.276 1.152 0 .756.276 1.164zM150.16975 34v-5.748h1.62v1.344q.108-.684.48-1.056.384-.384.924-.384.108 0 .324.024v1.728q-.144-.024-.336-.024-.648 0-.96.444-.3.432-.3 1.38V34zM159.157 30.76q0 .444-.048.828h-3.54q.024.6.288.936.264.324.768.324.72 0 .864-.588h1.584q-.12.912-.756 1.416-.624.492-1.68.492-1.344 0-2.064-.78-.72-.792-.72-2.244 0-1.452.72-2.256.72-.816 2.016-.816 1.224 0 1.896.732.672.732.672 1.956zm-3.588-.276h1.92q0-1.236-.912-1.236-.984 0-1.008 1.236zM160.02662 36.316V25.204h2.376v1.392h-.84v8.328h.84v1.392zM165.54513 26.752q0 .228-.096.48l-.63599 2.304h-.68401l-.648-2.304q-.084-.276-.084-.48 0-.456.312-.768t.756-.312q.456 0 .768.312.31201.312.31201.768zm2.47199 0q0 .228-.096.48l-.636 2.304h-.684l-.648-2.304q-.084-.276-.084-.48 0-.456.312-.768t.756-.312q.456 0 .768.312t.312.768zM173.44094 34l-.3-1.26h-2.34l-.3 1.26h-1.908l2.46-8.4h1.836l2.46 8.4zm-2.304-2.7h1.668l-.84-3.552zM176.06819 34v-5.748h1.752v.816q.384-.972 1.512-.972 1.176 0 1.524 1.056.444-1.056 1.608-1.056.888 0 1.356.588.48.576.48 1.668V34h-1.764v-3.444q0-.984-.684-.984-.792 0-.792 1.176V34h-1.764v-3.444q0-.984-.684-.984-.792 0-.792 1.176V34zM189.92031 33.352q-.756.816-2.052.816t-2.064-.816q-.756-.828-.756-2.232 0-1.404.756-2.22.768-.828 2.064-.828t2.052.828q.768.816.768 2.22 0 1.404-.768 2.232zm-2.856-1.068q.288.396.804.396t.792-.396q.288-.408.288-1.164t-.288-1.152q-.276-.408-.792-.408t-.804.408q-.276.396-.276 1.152 0 .756.276 1.164zM193.17006 34.156q-.828 0-1.284-.588-.456-.588-.456-1.668v-3.648h1.764v3.396q0 1.032.768 1.032.828 0 .828-1.188v-3.24h1.752V34h-1.752v-.828q-.432.984-1.62.984zM197.701 34v-5.748h1.752v.816q.468-.972 1.632-.972.852 0 1.308.552.456.54.456 1.596V34h-1.776v-3.276q0-.6-.18-.876t-.576-.276q-.864 0-.864 1.32V34zM206.61137 32.572q.024 0 .36-.024V34q-.48.096-.924.096-.81599 0-1.32-.468-.492-.48-.492-1.38v-2.64h-.732v-1.356h.732v-1.716h1.752v1.716h.936v1.356h-.936v2.172q0 .792.624.792zM209.81856 26.752q0 .228-.096.48l-.636 2.304h-.684l-.648-2.304q-.084-.276-.084-.48 0-.456.312-.768t.756-.312q.456 0 .768.312t.312.768zm2.472 0q0 .228-.096.48l-.636 2.304h-.684l-.648-2.304q-.084-.276-.084-.48 0-.456.312-.768t.756-.312q.456 0 .768.312t.312.768zM215.66237 36.316h-2.376v-1.392h.84v-8.328h-.84v-1.392h2.376z"/>
        </g>
    </switch>
</svg>
